<svg width="14" height="18" viewBox="0 0 14 18" fill="none" xmlns="http://www.w3.org/2000/svg">
<path d="M12.329 3.08241C11.2366 1.19719 9.29623 0.0454395 7.13852 0.00142383C7.04641 -0.000474609 6.9537 -0.000474609 6.86156 0.00142383C4.70388 0.0454395 2.76354 1.19719 1.67109 3.08241C0.554459 5.0094 0.523908 7.32408 1.58935 9.27424L6.05289 17.4441C6.0549 17.4477 6.0569 17.4513 6.05898 17.4549C6.25536 17.7963 6.60717 18 7.00011 18C7.39302 18 7.74482 17.7962 7.94117 17.4549C7.94324 17.4513 7.94525 17.4477 7.94725 17.4441L12.4108 9.27424C13.4762 7.32408 13.4456 5.0094 12.329 3.08241ZM7.00004 8.15627C5.6043 8.15627 4.46879 7.02076 4.46879 5.62502C4.46879 4.22928 5.6043 3.09377 7.00004 3.09377C8.39578 3.09377 9.53129 4.22928 9.53129 5.62502C9.53129 7.02076 8.39581 8.15627 7.00004 8.15627Z" fill="#7D7D7D"/>
</svg>
