<svg width="45" height="46" viewBox="0 0 45 46" fill="none" xmlns="http://www.w3.org/2000/svg">
<g clip-path="url(#clip0)">
<path d="M45 23.4262C45 30.8698 39 36.9535 31.5 36.9535C24.0714 36.9535 18 30.8698 18 23.4262C18 15.9826 24 9.89893 31.4286 9.89893C39 9.89893 45 15.9826 45 23.4262Z" fill="#FFB600"/>
<path d="M31.5 9.89893C38.9286 9.89893 45 15.9826 45 23.4262C45 30.8698 39 36.9535 31.5 36.9535C24.0714 36.9535 18 30.8698 18 23.4262" fill="#F7981D"/>
<path d="M31.5 9.89893C38.9286 9.89893 45 15.9826 45 23.4262C45 30.8698 39 36.9535 31.5 36.9535" fill="#FF8500"/>
<path d="M13.3571 9.89893C6 9.9705 0 15.9826 0 23.4262C0 30.8698 6 36.9535 13.5 36.9535C17 36.9535 20.1429 35.5936 22.5714 33.4464C23.0714 33.017 23.5 32.516 23.9286 32.0149H21.1429C20.7857 31.5855 20.4286 31.0845 20.1429 30.6551H24.9286C25.2143 30.2256 25.5 29.7246 25.7143 29.2236H19.3571C19.1429 28.7942 18.9286 28.2932 18.7857 27.7921H26.2143C26.6429 26.4323 26.9286 25.0008 26.9286 23.4978C26.9286 22.4958 26.7857 21.5653 26.6429 20.6349H18.3571C18.4286 20.1338 18.5714 19.7044 18.7143 19.2034H26.1429C26 18.7024 25.7857 18.2014 25.5714 17.7719H19.2857C19.5 17.2709 19.7857 16.8415 20.0714 16.3405H24.8571C24.5714 15.8395 24.2143 15.3385 23.7857 14.909H21.1429C21.5714 14.408 22 13.9786 22.5 13.5491C20.1429 11.3304 16.9286 10.0421 13.4286 10.0421C13.4286 9.89893 13.4286 9.89893 13.3571 9.89893Z" fill="#FF5050"/>
<path d="M0 23.4261C0 30.8697 6 36.9534 13.5 36.9534C17 36.9534 20.1429 35.5935 22.5714 33.4463C23.0714 33.0169 23.5 32.5159 23.9286 32.0149H21.1429C20.7857 31.5854 20.4286 31.0844 20.1429 30.655H24.9286C25.2143 30.2255 25.5 29.7245 25.7143 29.2235H19.3571C19.1429 28.7941 18.9286 28.2931 18.7857 27.7921H26.2143C26.6429 26.4322 26.9286 25.0007 26.9286 23.4977C26.9286 22.4957 26.7857 21.5652 26.6429 20.6348H18.3571C18.4286 20.1338 18.5714 19.7043 18.7143 19.2033H26.1429C26 18.7023 25.7857 18.2013 25.5714 17.7719H19.2857C19.5 17.2709 19.7857 16.8414 20.0714 16.3404H24.8571C24.5714 15.8394 24.2143 15.3384 23.7857 14.9089H21.1429C21.5714 14.4079 22 13.9785 22.5 13.5491C20.1429 11.3303 16.9286 10.042 13.4286 10.042H13.3571" fill="#E52836"/>
<path d="M13.5 36.9534C17 36.9534 20.1429 35.5935 22.5715 33.4463C23.0715 33.0169 23.5 32.5159 23.9286 32.0149H21.1429C20.7857 31.5854 20.4286 31.0844 20.1429 30.655H24.9286C25.2143 30.2255 25.5 29.7245 25.7143 29.2235H19.3572C19.1429 28.7941 18.9286 28.2931 18.7857 27.7921H26.2143C26.6429 26.4322 26.9286 25.0007 26.9286 23.4977C26.9286 22.4957 26.7857 21.5652 26.6429 20.6348H18.3572C18.4286 20.1338 18.5715 19.7043 18.7143 19.2033H26.1429C26 18.7023 25.7857 18.2013 25.5715 17.7719H19.2857C19.5 17.2709 19.7857 16.8414 20.0715 16.3404H24.8572C24.5715 15.8394 24.2143 15.3384 23.7857 14.9089H21.1429C21.5715 14.4079 22 13.9785 22.5 13.5491C20.1429 11.3303 16.9286 10.042 13.4286 10.042H13.3572" fill="#CB2026"/>
<path d="M18.2857 26.8619L18.4999 25.6451C18.4285 25.6451 18.2857 25.7167 18.1428 25.7167C17.6428 25.7167 17.5714 25.4304 17.6428 25.2873L18.0714 22.7822H18.8571L19.0714 21.4224H18.3571L18.4999 20.5635H17.0714C17.0714 20.5635 16.2142 25.2873 16.2142 25.8599C16.2142 26.7187 16.7142 27.0766 17.3571 27.0766C17.7857 27.0766 18.1428 26.9335 18.2857 26.8619Z" fill="white"/>
<path d="M18.7856 24.5716C18.7856 26.5757 20.1428 27.0767 21.2856 27.0767C22.3571 27.0767 22.7856 26.862 22.7856 26.862L23.0714 25.5021C23.0714 25.5021 22.2856 25.86 21.5714 25.86C19.9999 25.86 20.2856 24.7148 20.2856 24.7148H23.2142C23.2142 24.7148 23.4285 23.7843 23.4285 23.4265C23.4285 22.496 22.9285 21.3509 21.3571 21.3509C19.8571 21.2077 18.7856 22.7823 18.7856 24.5716ZM21.2856 22.496C22.0714 22.496 21.9285 23.4265 21.9285 23.498H20.3571C20.3571 23.4265 20.4999 22.496 21.2856 22.496Z" fill="white"/>
<path d="M30.357 26.862L30.6428 25.2874C30.6428 25.2874 29.9285 25.6453 29.4285 25.6453C28.4285 25.6453 27.9999 24.858 27.9999 23.9991C27.9999 22.2813 28.857 21.3509 29.857 21.3509C30.5713 21.3509 31.1428 21.7803 31.1428 21.7803L31.357 20.2773C31.357 20.2773 30.4999 19.9194 29.7142 19.9194C28.0713 19.9194 26.4285 21.3509 26.4285 24.0707C26.4285 25.86 27.2856 27.0767 28.9999 27.0767C29.5713 27.0767 30.357 26.862 30.357 26.862Z" fill="white"/>
<path d="M10.4285 21.2075C9.42852 21.2075 8.71423 21.4938 8.71423 21.4938L8.49995 22.7106C8.49995 22.7106 9.1428 22.4243 10.0714 22.4243C10.5714 22.4243 10.9999 22.4958 10.9999 22.9253C10.9999 23.2116 10.9285 23.2831 10.9285 23.2831C10.9285 23.2831 10.4999 23.2831 10.2857 23.2831C9.07138 23.2831 7.71423 23.7841 7.71423 25.4303C7.71423 26.7186 8.57138 27.0049 9.07138 27.0049C10.0714 27.0049 10.4999 26.3608 10.5714 26.3608L10.4999 26.9334H11.7857L12.3571 22.9968C12.3571 21.2791 10.9285 21.2075 10.4285 21.2075ZM10.7142 24.4283C10.7142 24.643 10.5714 25.7882 9.71423 25.7882C9.28566 25.7882 9.1428 25.4303 9.1428 25.2156C9.1428 24.8577 9.35709 24.3567 10.4285 24.3567C10.6428 24.4283 10.7142 24.4283 10.7142 24.4283Z" fill="white"/>
<path d="M13.7143 27.0052C14.0714 27.0052 15.8571 27.0768 15.8571 25.1443C15.8571 23.355 14.1428 23.7129 14.1428 22.9971C14.1428 22.6393 14.4286 22.4961 14.9286 22.4961C15.1428 22.4961 15.9286 22.5677 15.9286 22.5677L16.1428 21.2794C16.1428 21.2794 15.6428 21.1362 14.7857 21.1362C13.7143 21.1362 12.6428 21.5657 12.6428 22.9971C12.6428 24.6433 14.4286 24.5002 14.4286 25.1443C14.4286 25.5737 13.9286 25.6453 13.5714 25.6453C12.9286 25.6453 12.2857 25.4306 12.2857 25.4306L12.0714 26.7189C12.1428 26.8621 12.5 27.0052 13.7143 27.0052Z" fill="white"/>
<path d="M42.2142 20.062L41.9285 21.9945C41.9285 21.9945 41.3571 21.2788 40.5714 21.2788C39.2857 21.2788 38.1428 22.8534 38.1428 24.7142C38.1428 25.8594 38.7143 27.0762 39.9285 27.0762C40.7857 27.0762 41.2857 26.5036 41.2857 26.5036L41.2142 27.0046H42.6428L43.7142 20.1336L42.2142 20.062ZM41.5714 23.8554C41.5714 24.6427 41.2142 25.6447 40.4285 25.6447C39.9285 25.6447 39.6428 25.2153 39.6428 24.4995C39.6428 23.3544 40.1428 22.6386 40.7857 22.6386C41.2857 22.6386 41.5714 22.9965 41.5714 23.8554Z" fill="white"/>
<path d="M2.64279 26.933L3.49993 21.7798L3.64279 26.933H4.64279L6.49993 21.7798L5.71422 26.933H7.21422L8.35707 20.062H5.99993L4.57136 24.2848L4.49993 20.062H2.4285L1.28564 26.933H2.64279Z" fill="white"/>
<path d="M24.7857 26.9333C25.2142 24.5714 25.2857 22.6389 26.2857 22.9968C26.4285 22.0663 26.6428 21.7085 26.7857 21.3506C26.7857 21.3506 26.7142 21.3506 26.4999 21.3506C25.8571 21.3506 25.3571 22.2095 25.3571 22.2095L25.4999 21.4222H24.1428L23.2142 27.0048H24.7857V26.9333Z" fill="white"/>
<path d="M33.6429 21.2075C32.6429 21.2075 31.9286 21.4938 31.9286 21.4938L31.7143 22.7106C31.7143 22.7106 32.3572 22.4243 33.2857 22.4243C33.7857 22.4243 34.2143 22.4958 34.2143 22.9253C34.2143 23.2116 34.1429 23.2831 34.1429 23.2831C34.1429 23.2831 33.7143 23.2831 33.5 23.2831C32.2857 23.2831 30.9286 23.7841 30.9286 25.4303C30.9286 26.7186 31.7857 27.0049 32.2857 27.0049C33.2857 27.0049 33.7143 26.3608 33.7857 26.3608L33.7143 26.9334H35L35.5714 22.9968C35.6429 21.2791 34.1429 21.2075 33.6429 21.2075ZM34 24.4283C34 24.643 33.8572 25.7882 33 25.7882C32.5714 25.7882 32.4286 25.4303 32.4286 25.2156C32.4286 24.8577 32.6429 24.3567 33.7143 24.3567C33.9286 24.4283 33.9286 24.4283 34 24.4283Z" fill="white"/>
<path d="M36.7857 26.9333C37.2142 24.5714 37.2857 22.6389 38.2857 22.9968C38.4285 22.0663 38.6428 21.7085 38.7857 21.3506C38.7857 21.3506 38.7142 21.3506 38.4999 21.3506C37.8571 21.3506 37.3571 22.2095 37.3571 22.2095L37.4999 21.4222H36.1428L35.2142 27.0048H36.7857V26.9333Z" fill="white"/>
<path d="M16.0714 25.8599C16.0714 26.7187 16.5714 27.0766 17.2143 27.0766C17.7143 27.0766 18.1428 26.9335 18.2857 26.8619L18.5 25.6451C18.4286 25.6451 18.2857 25.7167 18.1428 25.7167C17.6428 25.7167 17.5714 25.4304 17.6428 25.2873L18.0714 22.7822H18.8571L19.0714 21.4224H18.3571L18.5 20.5635" fill="#DCE5E5"/>
<path d="M19.4999 24.5716C19.4999 26.5757 20.1427 27.0767 21.2856 27.0767C22.357 27.0767 22.7856 26.862 22.7856 26.862L23.0713 25.5021C23.0713 25.5021 22.2856 25.86 21.5713 25.86C19.9999 25.86 20.2856 24.7148 20.2856 24.7148H23.2142C23.2142 24.7148 23.4284 23.7843 23.4284 23.4265C23.4284 22.496 22.9284 21.3509 21.357 21.3509C19.857 21.2077 19.4999 22.7823 19.4999 24.5716ZM21.2856 22.496C22.0713 22.496 22.2142 23.4265 22.2142 23.498H20.357C20.357 23.4265 20.4999 22.496 21.2856 22.496Z" fill="#DCE5E5"/>
<path d="M30.3571 26.862L30.6428 25.2874C30.6428 25.2874 29.9285 25.6453 29.4285 25.6453C28.4285 25.6453 28 24.858 28 23.9991C28 22.2813 28.8571 21.3509 29.8571 21.3509C30.5714 21.3509 31.1428 21.7803 31.1428 21.7803L31.3571 20.2773C31.3571 20.2773 30.5 19.9194 29.7142 19.9194C28.0714 19.9194 27.1428 21.3509 27.1428 24.0707C27.1428 25.86 27.2857 27.0767 29 27.0767C29.5714 27.0767 30.3571 26.862 30.3571 26.862Z" fill="#DCE5E5"/>
<path d="M8.49995 22.782C8.49995 22.782 9.1428 22.4958 10.0714 22.4958C10.5714 22.4958 10.9999 22.5673 10.9999 22.9968C10.9999 23.2831 10.9285 23.3546 10.9285 23.3546C10.9285 23.3546 10.4999 23.3546 10.2857 23.3546C9.07138 23.3546 7.71423 23.8556 7.71423 25.5018C7.71423 26.7901 8.57138 27.0764 9.07138 27.0764C10.0714 27.0764 10.4999 26.4323 10.5714 26.4323L10.4999 27.0048H11.7857L12.3571 23.0683C12.3571 21.4222 10.9285 21.3506 10.3571 21.3506L8.49995 22.782ZM11.4285 24.4282C11.4285 24.6429 10.5714 25.7881 9.71423 25.7881C9.28566 25.7881 9.1428 25.4302 9.1428 25.2155C9.1428 24.8577 9.35709 24.3566 10.4285 24.3566C10.6428 24.4282 11.4285 24.4282 11.4285 24.4282Z" fill="#DCE5E5"/>
<path d="M12.1428 26.8621C12.1428 26.8621 12.5714 27.0052 13.7857 27.0052C14.1428 27.0052 15.9285 27.0768 15.9285 25.1443C15.9285 23.355 14.2143 23.7129 14.2143 22.9971C14.2143 22.6393 14.5 22.4961 15 22.4961C15.2143 22.4961 16 22.5677 16 22.5677L16.2143 21.2794C16.2143 21.2794 15.7143 21.1362 14.8571 21.1362C13.7857 21.1362 13.4285 21.5657 13.4285 22.9971C13.4285 24.6433 14.5 24.5002 14.5 25.1443C14.5 25.5737 14 25.6453 13.6428 25.6453" fill="#DCE5E5"/>
<path d="M41.9285 21.9947C41.9285 21.9947 41.3571 21.279 40.5714 21.279C39.2857 21.279 38.8571 22.8536 38.8571 24.7144C38.8571 25.8596 38.7143 27.0763 39.9285 27.0763C40.7857 27.0763 41.2857 26.5038 41.2857 26.5038L41.2143 27.0048H42.6428L43.7143 20.1338L41.9285 21.9947ZM41.8571 23.8556C41.8571 24.6429 41.2143 25.6449 40.4285 25.6449C39.9285 25.6449 39.6428 25.2155 39.6428 24.4997C39.6428 23.3546 40.1428 22.6388 40.7857 22.6388C41.2857 22.6388 41.8571 22.9967 41.8571 23.8556Z" fill="#DCE5E5"/>
<path d="M2.64279 26.933L3.49993 21.7798L3.64279 26.933H4.64279L6.49993 21.7798L5.71422 26.933H7.21422L8.35707 20.062H6.57136L4.57136 24.2848L4.49993 20.062H3.71422L1.28564 26.933H2.64279Z" fill="#DCE5E5"/>
<path d="M23.2856 26.9333H24.7856C25.2142 24.5714 25.2856 22.6389 26.2856 22.9968C26.4285 22.0663 26.6428 21.7085 26.7856 21.3506C26.7856 21.3506 26.7142 21.3506 26.4999 21.3506C25.8571 21.3506 25.3571 22.2095 25.3571 22.2095L25.4999 21.4222" fill="#DCE5E5"/>
<path d="M31.7143 22.782C31.7143 22.782 32.3572 22.4958 33.2857 22.4958C33.7857 22.4958 34.2143 22.5673 34.2143 22.9968C34.2143 23.2831 34.1429 23.3546 34.1429 23.3546C34.1429 23.3546 33.7143 23.3546 33.5 23.3546C32.2857 23.3546 30.9286 23.8556 30.9286 25.5018C30.9286 26.7901 31.7857 27.0764 32.2857 27.0764C33.2857 27.0764 33.7143 26.4323 33.7857 26.4323L33.7143 27.0048H35L35.5714 23.0683C35.5714 21.4222 34.1429 21.3506 33.5714 21.3506L31.7143 22.782ZM34.6429 24.4282C34.6429 24.6429 33.7857 25.7881 32.9286 25.7881C32.5 25.7881 32.3572 25.4302 32.3572 25.2155C32.3572 24.8577 32.5714 24.3566 33.6429 24.3566C33.9286 24.4282 34.6429 24.4282 34.6429 24.4282Z" fill="#DCE5E5"/>
<path d="M35.2856 26.9333H36.7856C37.2142 24.5714 37.2856 22.6389 38.2856 22.9968C38.4285 22.0663 38.6428 21.7085 38.7856 21.3506C38.7856 21.3506 38.7142 21.3506 38.4999 21.3506C37.8571 21.3506 37.3571 22.2095 37.3571 22.2095L37.4999 21.4222" fill="#DCE5E5"/>
</g>
<defs>
<clipPath id="clip0">
<rect width="45" height="45.0909" fill="white" transform="translate(0 0.880859)"/>
</clipPath>
</defs>
</svg>
