<svg width="48" height="49" viewBox="0 0 48 49" fill="none" xmlns="http://www.w3.org/2000/svg">
<path d="M24 35.6158C26.8952 33.0201 28.7238 29.2029 28.7238 24.9276C28.7238 20.6523 26.8952 16.9115 24 14.2394C21.4857 11.9491 18.0571 10.4985 14.4 10.4985C6.47619 10.4985 0 16.9878 0 24.9276C0 32.8674 6.47619 39.2804 14.4 39.2804C18.0571 39.3567 21.4857 37.9062 24 35.6158Z" fill="#07A9E2"/>
<path d="M0 24.9276C0 32.8674 6.47619 39.2804 14.4 39.2804C18.1333 39.2804 21.4857 37.9062 24 35.5395C26.8952 32.9438 28.7238 29.1266 28.7238 24.8513C28.7238 20.576 26.8952 16.9115 24 14.2394C21.4857 11.9491 18.0571 10.4985 14.4 10.4985" fill="#009DDD"/>
<path d="M24 14.2394C21.4858 11.9491 18.0572 10.4985 14.4 10.4985C14.1715 10.4985 13.9429 10.4985 13.7143 10.4985C9.21909 13.7813 6.32385 19.0491 6.32385 24.9276C6.32385 30.8061 9.21909 36.0739 13.6381 39.2804C13.8667 39.2804 14.0953 39.2804 14.3239 39.2804C18.0572 39.2804 21.4096 37.9062 23.9239 35.5395C26.8191 32.9438 28.6477 29.1266 28.6477 24.8513C28.6477 20.576 26.8953 16.9115 24 14.2394Z" fill="#0284CC"/>
<path d="M33.6762 10.4985C29.9428 10.4985 26.5905 11.8727 24 14.2394C23.4666 14.6975 23.0095 15.2319 22.5524 15.7663H25.4476C25.8286 16.2244 26.2095 16.7588 26.5143 17.2932H21.4095C21.1047 17.8276 20.8 18.2857 20.5714 18.8201H27.3524C27.5809 19.3545 27.8095 19.8126 27.9619 20.347H20.0381C19.8857 20.8814 19.7333 21.3394 19.5809 21.8739H28.419C28.6476 22.8663 28.7238 23.8588 28.7238 24.9276C28.7238 26.5309 28.4952 28.0577 27.9619 29.5083H20.0381C20.1905 30.0427 20.419 30.5008 20.6476 31.0352H27.4286C27.2 31.5696 26.8952 32.104 26.5905 32.5621H21.4857C21.7905 33.0965 22.1714 33.6309 22.5524 34.089H25.4476C24.9905 34.6234 24.5333 35.1578 24 35.6158C26.5905 37.9062 29.9428 39.3567 33.6762 39.3567C41.6 39.3567 48 32.9438 48 25.004C48 16.9878 41.6 10.4985 33.6762 10.4985Z" fill="#FF2957"/>
<path d="M33.6762 10.4985C29.9428 10.4985 26.5905 11.8727 24 14.2394C23.4666 14.6975 23.0095 15.2319 22.5524 15.7663H25.4476C25.8286 16.2244 26.2095 16.7588 26.5143 17.2932H21.4095C21.1047 17.8276 20.8 18.2857 20.5714 18.8201H27.3524C27.5809 19.3545 27.8095 19.8126 27.9619 20.347H20.0381C19.8857 20.8814 19.7333 21.3394 19.5809 21.8739H28.419C28.6476 22.8663 28.7238 23.8588 28.7238 24.9276C28.7238 26.5309 28.4952 28.0577 27.9619 29.5083H20.0381C20.1905 30.0427 20.419 30.5008 20.6476 31.0352H27.4286C27.2 31.5696 26.8952 32.104 26.5905 32.5621H21.4857C21.7905 33.0965 22.1714 33.6309 22.5524 34.089H25.4476C24.9905 34.6234 24.5333 35.1578 24 35.6158C26.5905 37.9062 29.9428 39.3567 33.6762 39.3567C41.6 39.3567 48 32.9438 48 25.004" fill="#ED1C2E"/>
<path d="M24 35.6157C26.8952 33.02 28.7238 29.2028 28.7238 24.9275C28.7238 20.6522 26.8952 16.9113 24 14.2393V35.6157Z" fill="#0466B5"/>
<path d="M43.0476 28.0577C43.0476 27.8286 43.2762 27.5996 43.5048 27.5996C43.7333 27.5996 43.9619 27.8286 43.9619 28.0577C43.9619 28.2867 43.7333 28.5157 43.5048 28.5157C43.2762 28.5157 43.0476 28.2867 43.0476 28.0577ZM43.5048 28.4394C43.7333 28.4394 43.8095 28.2867 43.8095 28.0577C43.8095 27.8286 43.6571 27.7523 43.5048 27.7523C43.2762 27.7523 43.1238 27.905 43.1238 28.0577C43.1238 28.2104 43.3524 28.4394 43.5048 28.4394ZM43.5048 28.2104H43.4286V27.8286H43.5809C43.6571 27.8286 43.6571 27.8286 43.6571 27.8286L43.7333 27.905C43.7333 27.9813 43.7333 27.9813 43.6571 27.9813L43.7333 28.134H43.6571L43.5809 27.9813H43.5048V28.2104ZM43.5048 27.9813C43.5809 27.9813 43.5809 27.9813 43.5809 27.9813C43.5809 27.9813 43.5809 27.9813 43.5809 27.905H43.5048V27.9813Z" fill="white"/>
<path d="M24 14.2393C23.4666 14.6974 23.0095 15.2318 22.5524 15.7662H25.4476C25.8286 16.2243 26.2095 16.7587 26.5143 17.2931H21.4095C21.1047 17.8275 20.8 18.2856 20.5714 18.82H27.3524C27.5809 19.3544 27.8095 19.8125 27.9619 20.3469H20.0381C19.8857 20.8813 19.7333 21.3393 19.5809 21.8738H28.419C28.6476 22.8662 28.7238 23.8587 28.7238 24.9275C28.7238 26.5308 28.4952 28.0576 27.9619 29.5082H20.0381C20.1905 30.0426 20.419 30.5007 20.6476 31.0351H27.4286C27.2 31.5695 26.8952 32.1039 26.5905 32.562H21.4857C21.7905 33.0964 22.1714 33.6308 22.5524 34.0889H25.4476C24.9905 34.6233 24.5333 35.1577 24 35.6157C26.5905 37.9061 29.9428 39.3566 33.6762 39.3566C33.9047 39.3566 34.1333 39.3566 34.3619 39.3566C38.7809 36.1502 41.6762 30.8824 41.6762 25.0039C41.6762 19.1254 38.7809 13.8576 34.3619 10.6511C34.1333 10.6511 33.9047 10.6511 33.6762 10.6511C29.9428 10.4984 26.5905 11.949 24 14.2393Z" fill="#D1094B"/>
<path d="M12.5714 28.5156H10.7428L11.8094 22.9424L9.37135 28.5156H7.77135L7.46659 22.9424L6.39993 28.5156H4.79993L6.17135 21.1865H8.9904L9.14278 25.7672L11.1237 21.1865H14.019L12.5714 28.5156Z" fill="white"/>
<path d="M10.819 25.3089L11.8857 22.9423L11.0476 27.3702C11.1237 27.752 11.1999 28.21 11.3523 28.5918H12.5714L13.9428 21.2627H11.2761C10.9714 22.4079 10.7428 23.7057 10.7428 25.0036C10.819 25.0799 10.819 25.1563 10.819 25.3089Z" fill="#DCE5E5"/>
<path d="M32.5332 28.4391C31.9999 28.5918 31.6951 28.6681 31.238 28.6681C30.3237 28.6681 29.8666 28.21 29.8666 27.3703C29.8666 27.2176 29.8666 27.0649 29.9428 26.8358L30.019 26.2251L30.0951 25.767L30.9332 21.2627H32.6856L32.4571 22.6369H33.3713L33.1428 24.0111H32.2285L31.7713 26.4541C31.7713 26.5305 31.6951 26.6832 31.6951 26.6832C31.6951 26.9885 31.9237 27.1412 32.3047 27.1412C32.5332 27.1412 32.6856 27.1412 32.7618 27.0649L32.5332 28.4391Z" fill="#DCE5E5"/>
<path d="M37.7904 22.6371C37.6381 22.5607 37.6381 22.5607 37.5619 22.5607C37.4857 22.5607 37.4095 22.5607 37.4095 22.4844C37.3333 22.4844 37.3333 22.4844 37.1809 22.4844C36.5714 22.4844 36.1904 22.7134 35.6571 23.4769L35.8095 22.5607H34.2095L33.1428 28.5156H34.9714C35.5809 24.8511 35.8857 24.2403 36.7238 24.2403C36.8 24.2403 36.8762 24.2403 36.9523 24.2403L37.1809 24.3166L37.7904 22.6371Z" fill="#DCE5E5"/>
<path d="M25.4476 24.4693C25.4476 25.2328 25.9047 25.7672 26.819 26.0726C27.5809 26.3779 27.6571 26.4543 27.6571 26.7597C27.6571 27.1414 27.3523 27.2941 26.5904 27.2941C26.0571 27.2941 25.5237 27.2177 24.9904 27.065L24.7618 28.4392H24.838L25.1428 28.5156C25.219 28.5156 25.4476 28.5156 25.5999 28.5156C26.0571 28.5919 26.3618 28.5919 26.5904 28.5919C28.4952 28.5919 29.4095 27.9812 29.4095 26.607C29.4095 25.7672 29.0285 25.3091 28.1142 24.9274C27.3523 24.622 27.2761 24.5457 27.2761 24.3166C27.2761 24.0113 27.5809 23.8586 28.1904 23.8586C28.4952 23.8586 29.0285 23.8586 29.4857 23.9349L29.7142 22.5607C29.2571 22.4844 28.5714 22.4844 28.1142 22.4844C26.1333 22.4844 25.4476 23.4005 25.4476 24.4693Z" fill="#DCE5E5"/>
<path d="M18.3618 28.5153H16.9142V27.9045C16.457 28.3626 15.8475 28.5916 15.0094 28.5916C14.0189 28.5916 13.4094 27.9045 13.4094 26.9884C13.4094 25.5378 14.5523 24.698 16.5332 24.698C16.7618 24.698 16.9904 24.698 17.2951 24.698C17.3713 24.469 17.3713 24.3927 17.3713 24.3163C17.3713 23.9346 17.0666 23.7819 16.2285 23.7819C15.6951 23.7819 15.1618 23.8583 14.7809 23.9346L14.5523 24.0109H14.3999L14.6285 22.7131C15.5428 22.4841 16.0761 22.4077 16.7618 22.4077C18.2856 22.4077 19.1237 23.0185 19.1237 24.1636C19.1237 24.469 19.1237 24.698 18.9713 25.3851L18.5904 27.5228L18.5142 27.9045L18.438 28.2099V28.4389L18.3618 28.5153ZM17.0666 25.8432C16.838 25.8432 16.7618 25.8432 16.6856 25.8432C15.6951 25.8432 15.1618 26.1486 15.1618 26.7593C15.1618 27.1411 15.3904 27.3701 15.7713 27.3701C16.5332 27.3701 17.0666 26.7593 17.0666 25.8432Z" fill="#DCE5E5"/>
<path d="M24.2285 28.3626C23.619 28.5153 23.0094 28.5916 22.3999 28.5916C20.419 28.5916 19.3523 27.6755 19.3523 25.9196C19.3523 23.8583 20.6475 22.4077 22.4761 22.4077C23.9237 22.4077 24.838 23.2475 24.838 24.5454C24.838 25.0034 24.7618 25.3851 24.6094 25.9959H21.0285C21.0285 26.0722 21.0285 26.1486 21.0285 26.2249C21.0285 26.912 21.5618 27.2938 22.5523 27.2938C23.238 27.2938 23.7713 27.2174 24.3809 26.912L24.2285 28.3626ZM23.3142 24.8507C23.3142 24.7744 23.3142 24.6217 23.3142 24.5454C23.3142 24.0873 23.0094 23.7819 22.4761 23.7819C21.9428 23.7819 21.4856 24.1636 21.3332 24.8507H23.3142Z" fill="#DCE5E5"/>
<path d="M43.3524 25.8432C43.0476 27.8282 41.6762 28.668 39.8476 28.668C37.8667 28.668 37.0286 27.4464 37.0286 25.9196C37.0286 23.8583 38.4 22.4077 40.5333 22.4077C42.3619 22.4077 43.3524 23.6292 43.3524 25.0798C43.3524 25.4615 43.3524 25.4615 43.3524 25.8432ZM41.4476 25.0798C41.4476 24.469 41.219 23.9346 40.4571 23.9346C39.5429 23.9346 39.0095 25.0034 39.0095 25.9959C39.0095 26.7593 39.3905 27.2938 40 27.2938C40.3809 27.2938 41.219 26.7593 41.3714 25.8432C41.4476 25.5378 41.4476 25.3088 41.4476 25.0798Z" fill="white"/>
<path d="M37.1048 26.6067C37.1809 26.0723 37.2571 25.4615 37.2571 24.9271C37.2571 24.8508 37.2571 24.7744 37.2571 24.7744C37.1809 25.1561 37.1048 25.5379 37.1048 25.9959C37.0286 26.1486 37.0286 26.3776 37.1048 26.6067Z" fill="white"/>
</svg>
