<svg width="70" height="71" viewBox="0 0 70 71" fill="none" xmlns="http://www.w3.org/2000/svg">
<path d="M54.648 29.6149C52.9295 29.6149 51.5547 30.0741 50.409 30.3037L50.0653 32.9441C50.6381 32.7145 52.2421 32.2553 53.6169 32.1405C54.9917 32.1405 55.7936 32.3701 55.5645 33.6329C51.4401 33.6329 48.6905 34.4364 48.1177 37.1916C47.3157 41.7835 52.3566 41.8983 54.3043 39.8319L54.0751 41.0947H57.7413L59.3452 33.6329C59.918 30.5333 57.1684 29.5001 54.648 29.6149ZM54.8771 37.3064C54.648 38.2248 53.846 38.5692 52.9295 38.684C52.1275 38.684 51.4401 38.2248 51.8984 37.3064C52.3566 36.6176 53.3877 36.6176 54.1897 36.6176C54.4188 36.6176 54.7625 36.6176 55.1062 36.6176C54.9917 36.5028 54.8771 36.962 54.8771 37.3064Z" fill="#32A6CE"/>
<path d="M50.0653 32.9443C50.6381 32.7147 52.2421 32.2555 53.6169 32.1407C54.9917 32.1407 55.7936 32.3703 55.5645 33.6331C51.4401 33.6331 48.6905 34.4367 48.1177 37.1918C47.3157 41.7837 52.3566 41.8985 54.3043 39.8322L54.0751 41.095H57.7412L59.3452 33.6331C60.0326 30.5336 57.1684 29.73 54.648 29.73L50.0653 32.9443ZM54.8771 37.3066C54.648 38.225 53.846 38.5694 52.9295 38.6842C52.1275 38.6842 51.4401 38.225 51.8984 37.3066C52.3566 36.6178 53.3877 36.6178 54.1897 36.6178C54.4188 36.6178 54.7625 36.6178 55.1062 36.6178C54.9917 36.503 54.8771 36.9622 54.8771 37.3066Z" fill="#1A80AD"/>
<path d="M62.4387 26.1714L59.46 41.0951H63.1261L66.2194 26.1714H62.4387Z" fill="#32A6CE"/>
<path d="M65.0737 26.1714L59.46 41.0951H63.1261L66.2194 26.1714H62.4387H65.0737Z" fill="#1A80AD"/>
<path d="M45.3683 26.1714H38.6089L35.6301 41.0951H39.6399L40.671 36.5032H43.5352C46.2848 36.5032 48.5761 34.896 49.149 32.0261C49.7218 28.6969 47.3159 26.1714 45.3683 26.1714ZM45.2537 31.3373C45.0246 32.3705 43.9935 33.0593 42.9624 33.0593H41.1293L41.9313 29.6153H43.8789C44.91 29.6153 45.4828 30.3041 45.2537 31.3373Z" fill="#32A6CE"/>
<path d="M45.3683 26.1714H40.7857L35.5156 41.0951H39.5254L40.5565 36.5032H43.4207C46.1703 36.5032 48.4616 34.896 49.0344 32.0261C49.7218 28.6969 47.3159 26.1714 45.3683 26.1714ZM45.2538 31.3373C45.0246 32.3705 43.9935 33.0593 42.9624 33.0593H41.1294L41.9313 29.6153H43.879C44.9101 29.6153 45.4829 30.3041 45.2538 31.3373Z" fill="#1A80AD"/>
<path d="M18.9035 29.6149C17.185 29.6149 15.8102 30.0741 14.7791 30.3037L14.4354 32.9441C14.8937 32.7145 16.6122 32.2553 17.987 32.1405C19.3618 32.1405 20.1637 32.3701 19.9346 33.6329C15.9248 33.6329 13.1752 34.4364 12.6024 37.1916C11.8004 41.7835 16.7267 41.8983 18.6744 39.8319L18.4452 41.0947H22.1113L23.7153 33.6329C24.2881 30.5333 21.424 29.5001 18.9035 29.6149ZM19.2472 37.3064C19.0181 38.2248 18.2161 38.5692 17.2996 38.684C16.4976 38.684 15.8102 38.2248 16.383 37.3064C16.8413 36.6176 17.8724 36.6176 18.5598 36.6176C18.9035 36.6176 19.1326 36.6176 19.4763 36.6176C19.3618 36.5028 19.2472 36.962 19.2472 37.3064Z" fill="#21789E"/>
<path d="M14.5499 32.9443C15.0082 32.7147 16.7267 32.2555 18.1015 32.1407C19.4763 32.1407 20.2782 32.3703 20.0491 33.6331C16.0393 33.6331 13.2897 34.4367 12.7169 37.1918C11.9149 41.7837 16.8412 41.8985 18.7889 39.8322L18.4452 41.095H22.1113L23.7152 33.6331C24.4026 30.5336 21.5385 29.73 19.018 29.73L14.5499 32.9443ZM19.2471 37.3066C19.018 38.225 18.216 38.5694 17.2995 38.6842C16.4975 38.6842 15.8101 38.225 16.383 37.3066C16.8412 36.6178 17.8723 36.6178 18.5597 36.6178C18.9034 36.6178 19.1326 36.6178 19.4763 36.6178C19.3617 36.503 19.2471 36.9622 19.2471 37.3066Z" fill="#1A5B80"/>
<path d="M25.2045 29.6152H28.8706L29.4435 36.0439L33.1096 29.6152H36.8903L28.1832 45.6869H24.0588L26.6939 40.8654L25.2045 29.6152Z" fill="#21789E"/>
<path d="M28.8706 29.8448L29.4435 36.1587L33.1096 29.6152H36.8903L28.1832 45.6869H24.0588L26.6939 40.9802" fill="#1A5B80"/>
<path d="M9.8527 26.1714H2.97872L0 41.0951H4.00982L5.04092 36.5032H7.90507C10.6547 36.5032 12.946 34.896 13.5188 32.0261C14.2062 28.6969 11.8003 26.1714 9.8527 26.1714ZM9.73813 31.3373C9.509 32.3705 8.47791 33.0593 7.44681 33.0593H5.61375L6.41571 29.6153H8.36334C9.39444 29.6153 9.96727 30.3041 9.73813 31.3373Z" fill="#21789E"/>
<path d="M9.8527 26.1714H6.75941L0 41.0951H4.00982L5.04092 36.5032H7.90507C10.6547 36.5032 12.946 34.896 13.5188 32.0261C14.2062 28.6969 11.8003 26.1714 9.8527 26.1714ZM9.73813 31.3373C9.509 32.3705 8.47791 33.0593 7.44681 33.0593H5.61375L6.41571 29.6153H8.36334C9.39444 29.6153 9.96727 30.3041 9.73813 31.3373Z" fill="#1A5B80"/>
<path d="M18.2161 33.6333C15.1228 33.8629 13.0606 34.7813 12.6024 37.0772C11.8004 41.6691 16.7267 41.7839 18.6744 39.7176L18.4452 41.0951H22.1114L22.6842 38.34L18.2161 33.6333ZM19.2472 37.3068C19.0181 38.2252 18.2161 38.5696 17.2996 38.6844C16.4976 38.6844 15.8102 38.2252 16.383 37.3068C16.8413 36.618 17.8724 36.618 18.5598 36.618C18.9035 36.618 19.1326 36.618 19.4763 36.618C19.3618 36.5032 19.2472 36.9624 19.2472 37.3068Z" fill="#06435E"/>
<path d="M29.6727 35.9291L29.4436 36.2735L31.8495 38.5695L36.8904 29.6152H33.1097L29.6727 35.9291Z" fill="#06435E"/>
<path d="M4.00987 41.0948L5.04097 36.5029L0.34375 41.0948H4.00987Z" fill="#06435E"/>
<path d="M39.5253 41.0949L40.5564 36.2734V36.3882L35.8591 41.0949H39.5253Z" fill="#2273AA"/>
<path d="M53.8459 33.6333C50.7526 33.8629 48.6904 34.7813 48.2322 37.0772C47.4302 41.6691 52.4711 41.7839 54.4188 39.7176L54.0751 41.0951H57.7412L58.314 38.34L53.8459 33.6333ZM54.877 37.3068C54.6479 38.2252 53.8459 38.5696 52.9294 38.6844C52.1274 38.6844 51.44 38.2252 51.8983 37.3068C52.3566 36.618 53.3877 36.618 54.1896 36.618C54.4188 36.618 54.7625 36.618 55.1062 36.618C54.9916 36.5032 54.877 36.9624 54.877 37.3068Z" fill="#2273AA"/>
<path d="M62.095 34.3223L59.46 41.0953H63.1261L64.1572 36.5034L62.095 34.3223Z" fill="#2273AA"/>
<path d="M67.0213 28.5819V26.9747H66.4485V26.7451H67.9379V26.9747H67.365V28.5819H67.0213Z" fill="#32A6CE"/>
<path d="M68.167 28.5819V26.7452H68.5107L68.969 28.0079C68.969 28.1227 69.0835 28.2375 69.0835 28.2375C69.0835 28.1227 69.0835 28.1227 69.1981 27.8931L69.6563 26.6304H70V28.4671H69.7709V26.86L69.1981 28.4671H68.8544L68.2816 26.86V28.4671H68.167V28.5819Z" fill="#32A6CE"/>
</svg>
