<svg width="31" height="31" viewBox="0 0 31 31" fill="none" xmlns="http://www.w3.org/2000/svg">
<circle cx="15.5" cy="15.5" r="15.5" fill="#1E97DB"/>
<path d="M21.7713 17.6241C22.4402 18.3081 23.146 18.9518 23.7459 19.7048C24.0109 20.0394 24.2618 20.3848 24.4537 20.7731C24.7256 21.3252 24.4793 21.9327 24.0068 21.9657L21.0695 21.9643C20.3119 22.0301 19.7076 21.7106 19.1994 21.168C18.7927 20.734 18.4161 20.2721 18.0251 19.8236C17.8648 19.6402 17.697 19.4677 17.4965 19.3313C17.0955 19.0586 16.7475 19.1421 16.5183 19.5803C16.2849 20.0259 16.232 20.5193 16.2091 21.0159C16.1777 21.7406 15.9686 21.9311 15.2738 21.9642C13.789 22.0376 12.3798 21.8023 11.0707 21.0175C9.91658 20.3257 9.02161 19.3491 8.2426 18.2435C6.72587 16.0907 5.56438 13.7251 4.52053 11.2931C4.28555 10.7452 4.45741 10.4511 5.03446 10.4407C5.99271 10.4212 6.9508 10.4226 7.91016 10.4392C8.29961 10.4452 8.55743 10.6792 8.70784 11.0647C9.22628 12.4002 9.86067 13.6708 10.6569 14.8485C10.869 15.162 11.0852 15.4756 11.3931 15.6962C11.7337 15.9406 11.9931 15.8596 12.1533 15.4621C12.255 15.2101 12.2995 14.9386 12.3224 14.6686C12.3984 13.7398 12.4084 12.8126 12.2752 11.8871C12.1935 11.3095 11.883 10.9356 11.3327 10.8263C11.052 10.7705 11.0938 10.6611 11.2297 10.4932C11.4658 10.2037 11.6879 10.0234 12.1305 10.0234H15.4501C15.9727 10.1315 16.0888 10.3775 16.1603 10.9283L16.1631 14.7914C16.1574 15.0047 16.2648 15.6375 16.6315 15.7787C16.925 15.8792 17.1184 15.6332 17.2945 15.4383C18.0893 14.5545 18.6565 13.5101 19.1633 12.4286C19.3882 11.9531 19.5816 11.4592 19.769 10.9658C19.9078 10.5997 20.1257 10.4195 20.5194 10.4275L23.7144 10.4305C23.8091 10.4305 23.905 10.4319 23.9968 10.4484C24.5351 10.5445 24.6827 10.7872 24.5164 11.3379C24.2544 12.202 23.7446 12.9221 23.2462 13.6455C22.7134 14.4178 22.1435 15.1638 21.6152 15.9407C21.1297 16.6502 21.1683 17.0079 21.7713 17.6241Z" fill="white"/>
</svg>
