<svg width="31" height="31" viewBox="0 0 31 31" fill="none" xmlns="http://www.w3.org/2000/svg">
<circle cx="15.5" cy="15.5" r="15.5" fill="#FF2507"/>
<path d="M23.9679 10.7424C23.344 10.0421 22.1922 9.75635 19.9925 9.75635H12.0075C9.75746 9.75635 8.58612 10.0605 7.96463 10.8062C7.35864 11.5332 7.35864 12.6044 7.35864 14.0871V16.9129C7.35864 19.7853 8.07759 21.2436 12.0075 21.2436H19.9925C21.9001 21.2436 22.9572 20.9915 23.641 20.3734C24.3423 19.7396 24.6415 18.7046 24.6415 16.9129V14.087C24.6415 12.5235 24.5946 11.446 23.9679 10.7424ZM18.4543 15.8902L14.8284 17.6799C14.7473 17.72 14.6587 17.7398 14.5701 17.7398C14.4699 17.7398 14.3699 17.7143 14.2813 17.6637C14.1145 17.5682 14.0126 17.3975 14.0126 17.2133V13.6452C14.0126 13.4614 14.1142 13.2907 14.2807 13.1952C14.4472 13.0997 14.6544 13.0932 14.8271 13.1779L18.4531 14.9562C18.6375 15.0466 18.7534 15.2265 18.7537 15.4227C18.7539 15.6192 18.6385 15.7993 18.4543 15.8902Z" fill="white"/>
</svg>
