<svg width="31" height="31" viewBox="0 0 31 31" fill="none" xmlns="http://www.w3.org/2000/svg">
<circle cx="15.5" cy="15.5" r="15.5" fill="url(#paint0_linear)"/>
<path d="M19.6321 23.6611H12.368C9.6182 23.6611 7.3811 21.5483 7.3811 18.9513V12.0482C7.3811 9.45119 9.6182 7.33838 12.368 7.33838H19.6321C22.3819 7.33838 24.6189 9.45119 24.6189 12.0482V18.9513C24.6189 21.5483 22.3818 23.6611 19.6321 23.6611ZM12.368 9.27389C10.7482 9.27389 9.43043 10.5184 9.43043 12.0482V18.9513C9.43043 20.4811 10.7482 21.7256 12.368 21.7256H19.6321C21.2519 21.7256 22.5696 20.4811 22.5696 18.9513V12.0482C22.5696 10.5184 21.2519 9.27389 19.6321 9.27389H12.368Z" fill="white"/>
<path d="M16.0001 19.5379C13.6425 19.5379 11.7244 17.7263 11.7244 15.4997C11.7244 13.273 13.6425 11.4614 16.0001 11.4614C18.3578 11.4614 20.2759 13.273 20.2759 15.4997C20.2759 17.7263 18.3578 19.5379 16.0001 19.5379ZM16.0001 13.3494C14.7448 13.3494 13.7234 14.314 13.7234 15.4997C13.7234 16.6853 14.7447 17.6499 16.0001 17.6499C17.2555 17.6499 18.2769 16.6853 18.2769 15.4997C18.2769 14.314 17.2555 13.3494 16.0001 13.3494Z" fill="white"/>
<path d="M20.3765 12.0792C19.9602 12.0792 19.6216 11.7594 19.6216 11.3663C19.6216 10.9731 19.9602 10.6533 20.3765 10.6533C20.7927 10.6533 21.1313 10.9731 21.1313 11.3663C21.1313 11.7594 20.7927 12.0792 20.3765 12.0792Z" fill="white"/>
<defs>
<linearGradient id="paint0_linear" x1="15.5" y1="0" x2="15.5" y2="31" gradientUnits="userSpaceOnUse">
<stop stop-color="#B93826"/>
<stop offset="1" stop-color="#5E26B9"/>
</linearGradient>
</defs>
</svg>
