<svg width="48" height="49" viewBox="0 0 48 49" fill="none" xmlns="http://www.w3.org/2000/svg">
<g clip-path="url(#clip0)">
<path d="M17.6 31.8362L20.0381 18.0942H23.8476L21.4857 31.8362H17.6Z" fill="#3C58BF"/>
<path d="M17.6 31.8362L20.7238 18.0942H23.8476L21.4857 31.8362H17.6Z" fill="#293688"/>
<path d="M35.2762 18.2475C34.5143 17.9421 33.2952 17.6367 31.7714 17.6367C27.9619 17.6367 25.219 19.5453 25.219 22.2937C25.219 24.355 27.1238 25.4239 28.6476 26.111C30.1714 26.7981 30.6285 27.2561 30.6285 27.8669C30.6285 28.783 29.4095 29.2411 28.3428 29.2411C26.819 29.2411 25.9809 29.012 24.6857 28.4776L24.1524 28.2486L23.619 31.3787C24.5333 31.7604 26.2095 32.1422 27.9619 32.1422C32 32.1422 34.6666 30.2336 34.6666 27.3325C34.6666 25.7292 33.6762 24.5077 31.3904 23.5152C30.019 22.8281 29.1809 22.4464 29.1809 21.7593C29.1809 21.1486 29.8666 20.5378 31.3904 20.5378C32.6857 20.5378 33.6 20.7668 34.2857 21.0722L34.6666 21.2249L35.2762 18.2475Z" fill="#3C58BF"/>
<path d="M35.2762 18.2475C34.5143 17.9421 33.2952 17.6367 31.7714 17.6367C27.9619 17.6367 25.9047 19.5453 25.9047 22.2937C25.9047 24.355 27.1238 25.4239 28.6476 26.111C30.1714 26.7981 30.6285 27.2561 30.6285 27.8669C30.6285 28.783 29.4095 29.2411 28.3428 29.2411C26.819 29.2411 25.9809 29.012 24.6857 28.4776L24.1524 28.2486L23.619 31.3787C24.5333 31.7604 26.2095 32.1422 27.9619 32.1422C32 32.1422 34.6666 30.2336 34.6666 27.3325C34.6666 25.7292 33.6762 24.5077 31.3904 23.5152C30.019 22.8281 29.1809 22.4464 29.1809 21.7593C29.1809 21.1486 29.8666 20.5378 31.3904 20.5378C32.6857 20.5378 33.6 20.7668 34.2857 21.0722L34.6666 21.2249L35.2762 18.2475Z" fill="#293688"/>
<path d="M41.8285 18.0942C40.9143 18.0942 40.2285 18.1706 39.8476 19.0867L34.1333 31.8362H38.2476L39.0095 29.5459H43.8857L44.3428 31.8362H48L44.8 18.0942H41.8285ZM40.0762 27.2556C40.3047 26.5685 41.6 23.2093 41.6 23.2093C41.6 23.2093 41.9047 22.3695 42.1333 21.8351L42.3619 23.133C42.3619 23.133 43.1238 26.5685 43.2762 27.3319H40.0762V27.2556Z" fill="#3C58BF"/>
<path d="M42.7428 18.0942C41.8285 18.0942 41.1428 18.1706 40.7619 19.0867L34.1333 31.8362H38.2476L39.0095 29.5459H43.8857L44.3428 31.8362H48L44.8 18.0942H42.7428ZM40.0762 27.2556C40.3809 26.4921 41.6 23.2093 41.6 23.2093C41.6 23.2093 41.9047 22.3695 42.1333 21.8351L42.3619 23.133C42.3619 23.133 43.1238 26.5685 43.2762 27.3319H40.0762V27.2556Z" fill="#293688"/>
<path d="M10.5905 27.7139L10.2096 25.729C9.52384 23.4387 7.31432 20.9193 4.87622 19.6978L8.30479 31.9129H12.4191L18.5905 18.1709H14.4762L10.5905 27.7139Z" fill="#3C58BF"/>
<path d="M10.5905 27.7139L10.2096 25.729C9.52384 23.4387 7.31432 20.9193 4.87622 19.6978L8.30479 31.9129H12.4191L18.5905 18.1709H15.2381L10.5905 27.7139Z" fill="#293688"/>
<path d="M0 18.0942L0.685714 18.2469C5.5619 19.3921 8.91428 22.2932 10.2095 25.7287L8.83809 19.2394C8.60952 18.3233 7.92381 18.0942 7.08571 18.0942H0Z" fill="#FFBC00"/>
<path d="M0 18.0942C4.87619 19.2394 8.91428 22.2168 10.2095 25.6523L8.91428 20.2319C8.68571 19.3157 7.92381 18.7813 7.08571 18.7813L0 18.0942Z" fill="#F7981D"/>
<path d="M0 18.0942C4.87619 19.2394 8.91428 22.2168 10.2095 25.6523L9.29524 22.6749C9.06667 21.7588 8.7619 20.8426 7.69524 20.4609L0 18.0942Z" fill="#ED7C00"/>
<path d="M14.4 27.256L11.8095 24.6603L10.5905 27.5614L10.2857 25.6528C9.60001 23.3625 7.39049 20.8431 4.95239 19.6216L8.38097 31.8367H12.4953L14.4 27.256Z" fill="#051244"/>
<path d="M21.4857 31.8367L18.2095 28.4775L17.6 31.8367H21.4857Z" fill="#051244"/>
<path d="M30.2476 27.103C30.5524 27.4084 30.7047 27.6374 30.6285 27.9428C30.6285 28.859 29.4095 29.317 28.3428 29.317C26.819 29.317 25.9809 29.088 24.6857 28.5536L24.1524 28.3245L23.619 31.4547C24.5333 31.8364 26.2095 32.2181 27.9619 32.2181C30.4 32.2181 32.3809 31.531 33.5238 30.3095L30.2476 27.103Z" fill="#051244"/>
<path d="M34.6667 31.8366H38.2477L39.0096 29.5462H43.8858L44.3429 31.8366H48.0001L46.7048 26.2634L42.1334 21.8354L42.362 23.057C42.362 23.057 43.1239 26.4925 43.2763 27.2559H40.0763C40.381 26.4925 41.6001 23.2096 41.6001 23.2096C41.6001 23.2096 41.9048 22.3699 42.1334 21.8354" fill="#051244"/>
</g>
<defs>
<clipPath id="clip0">
<rect width="48" height="48.097" fill="white" transform="translate(0 0.878906)"/>
</clipPath>
</defs>
</svg>
